<svg xmlns="http://www.w3.org/2000/svg" width="28" height="29" viewBox="0 0 28 29">
    <g fill="none" fill-rule="evenodd">
        <path d="M0 0h28v29H0z"/>
        <path d="M4 2.071h21v22H4z"/>
        <path fill="#FFF" d="M14.339 3.99c3.663 0 6.632 3.1 6.632 6.922 0 2.549-2.21 6.212-6.632 10.99-4.422-4.778-6.633-8.441-6.633-10.99 0-3.823 2.97-6.921 6.633-6.921zm0 4.478c-1.185 0-2.146 1.003-2.146 2.24 0 1.236.96 2.238 2.146 2.238 1.184 0 2.145-1.002 2.145-2.239 0-1.236-.96-2.239-2.145-2.239z"/>
        <path fill="#FFF" fill-rule="nonzero" d="M23.746 24.582H4.254l2.881-4.23h1.816c.359 0 .65-.302.65-.673a.662.662 0 0 0-.65-.674H6.798a.644.644 0 0 0-.53.286l-3.8 5.576c-.303.446.005 1.062.532 1.062h22c.527 0 .835-.616.531-1.062l-3.798-5.576a.644.644 0 0 0-.531-.286H19.06a.662.662 0 0 0-.65.674c0 .371.29.673.65.673h1.804l2.881 4.23z"/>
    </g>
</svg>
